<?xml version="1.0" encoding="UTF-8"?>
<!-- Created with Inkscape (http://www.inkscape.org/) -->
<svg width="447.29" height="358.52" version="1.1" viewBox="0 0 447.29 358.52" xmlns="http://www.w3.org/2000/svg">
 <g fill="#f05a5a">
  <path d="m41.171 115.95 0.42012 60.496h31.088l-0.84023-59.656 48.313-0.42011 0.42011 45.792h-49.574v14.704l152.5-0.84023v-14.704l-44.952 0.42012v-44.952l44.532-0.42011 0.42012-62.177-182.33 46.213z" fill-opacity=".37615"/>
  <g fill-opacity=".37615">
   <path d="m38.651 207.54v99.147h24.367l0.42012-76.041h-3.781l0.42011-7.5621h178.55v7.142l-2.5207 1.2603 0.42012 75.621h23.526v-99.567z"/>
   <path d="m260.47 207.96 9.2425 0.42011 36.55-0.84023 0.42011 90.325-7.5621 0.42011v-77.301l-38.23 0.42011 0.84023 74.78z"/>
   <path d="m270.13 184.43 0.42011 16.805h38.23v-7.1419z"/>
   <path d="m260.47 103.77 0.42011 69.739 9.6626 0.42011v4.6213l51.254 13.024 0.42011 6.3017-9.6626-2.5207-0.42012 102.93 4.2012 0.42012v7.5621l83.603 1.2603 0.42012-56.715-28.988 0.42012v-37.39l28.988 0.42012-3.3609 2.9408-0.84023 33.189h4.6213v-145.36l-49.153-0.84023 1.2603 56.295h-44.952v-47.473l42.852 0.84023 0.84023-10.083z"/>
  </g>
 </g>
 <path d="m226.44 53.355 30.668-7.5621v130.66h-30.248z" fill="#5af05d" fill-opacity=".25229"/>
 <g fill="#5a9df0">
  <path d="m260.47 48.733 0.42011 49.153 151.66 1.2603v-50.834z" fill-opacity=".25229"/>
  <path d="m36.97 174.35h-7.5621v28.568h239.89l0.84023-28.568-10.083-0.42011 0.42012 3.3609-219.3-0.42012z" fill-opacity=".36239"/>
 </g>
 <path d="m66.378 230.22 0.42012 82.763 165.95-0.42011-1.2604-81.922z" fill="#82f05a" fill-opacity=".86009"/>
 <g fill="#f0bf5a">
  <path d="m28.568 202.5v5.0414l241.15 0.42012v-5.4615z" fill-opacity=".86009"/>
  <g fill-opacity=".86009">
   <path d="m59.656 223.5 0.84023 7.1419h5.4615l-1.6805 1.2604-0.42012 75.621 2.1006-0.42011 0.42011-76.461 165.53 0.42012 0.84023 76.041 2.5207-0.42012 0.42012-76.461 2.1006 0.84023 0.84023-6.3017z"/>
   <path d="m269.71 179.39 0.42012 5.0414 51.254 13.444v-5.4615z"/>
   <path d="m308.36 194.51v7.5621h-38.651l0.42012 3.781 36.55 0.42012 0.84023 92.845h4.2012l-0.42012-92.845h1.6805v-4.2012l-0.84023-6.7218z"/>
   <path d="m371.38 213.42 0.42012 36.97 28.568 0.42011v-2.5207l-26.467-0.42011 1.2603-31.088h21.846l-0.42011-3.3609z"/>
   <path d="m310.88 116.37h39.911l-0.42011 42.011-39.491-0.84023-2.5207 3.781h44.952l0.42011-47.893h-47.053l0.84023 47.473 4.2012-3.781z"/>
   <path d="m183.17 157.54 0.42011-39.911 37.81 0.42012 0.42012 39.911 2.1006 3.3609 0.42011-45.792-46.213 0.84023 1.2603 44.952 44.952 0.42012-3.3609-5.4615z"/>
   <path d="m269.29 42.011-240.31 60.496v-5.4615l241.15-60.076z"/>
   <path d="m256.69 45.372 1.2604 131.08 2.1006-0.42012 0.84023-131.92z"/>
   <path d="m223.08 53.355h3.3609l0.42011 123.09h-3.781z"/>
   <path d="m71.84 116.79 0.42012 44.952 47.053-0.42012 0.42011-44.952-2.9408 2.1006v39.071h-41.591l0.42011-38.651h40.331l4.2012-2.5207z"/>
   <path d="m260.05 98.727 0.42012 5.0414 152.92 0.42012v-5.4615"/>
   <path d="m400.37 306.26h3.781v-202.08l-3.781-0.42012z"/>
  </g>
 </g>
 <path d="m265.93 226.44 28.988-0.42012 0.84023 68.479-29.408-0.42011z" fill="#f05ace" fill-opacity=".66972"/>
 <g transform="matrix(0 -1.3333 -1.3333 0 1461.3 940.99)">
  <g transform="matrix(.75 0 0 -.75 0 1224)">
   <g transform="translate(623.2,610.24)">
    <path d="m0 0 1.76 0.16 0.96-31.2z" fill="#e1e1e1" fill-rule="evenodd"/>
   </g>
   <g transform="translate(624.96,610.4)">
    <path d="m0 0 0.96-31.2h1.6z" fill="#e1e1e1" fill-rule="evenodd"/>
   </g>
   <g transform="translate(625.92,579.2)">
    <path d="m0 0h1.6l-1.6-374.08z" fill="#e1e1e1" fill-rule="evenodd"/>
   </g>
   <g transform="translate(627.52,579.2)">
    <path d="m0 0-1.6-374.08h1.6z" fill="#e1e1e1" fill-rule="evenodd"/>
   </g>
   <g transform="translate(625.92,205.12)">
    <path d="m0 0h1.6l-4.32-31.04z" fill="#e1e1e1" fill-rule="evenodd"/>
   </g>
   <g transform="translate(627.52,205.12)">
    <path d="m0 0-4.32-31.04 1.76-0.16z" fill="#e1e1e1" fill-rule="evenodd"/>
   </g>
  </g>
  <g transform="matrix(.75 0 0 -.75 624.72 900.36)">
   <path d="m0 0v139.36m-6.08-139.36v47.04m-6.08-47.04v47.04m-6.08-47.04v47.04m-6.08-47.04v47.04m-6.08-47.04v47.04m-6.08-47.04v47.04m-6.08-47.04v47.04m-6.08-47.04v47.04m-5.92-47.04v140.32m-6.08-140.32v140.32m-6.08-130.72v130.72m-6.08-123.84v123.84m-6.08-99.52v99.52m-6.08-78.88v78.88m-6.08-88.32v88.32m-6.08-87.52v87.52m-5.92-89.12v89.12m-6.08-89.12v60.16m-6.08-60.16v60.16m-6.08-60.16v60.16m-6.08-60.16v60.16m-6.08-60.16v60.16m-6.08-60.16v60.16m-6.08-60.16v89.12m-5.92-89.12v89.12m-6.08-89.12v89.12m-6.08-89.12v89.12m-6.08-89.12v89.12m-6.08-89.12v89.12m-6.08-89.12v89.12m-6.08-89.12v89.12m-6.08-84.8v84.8" fill="none" stroke="#4c4c4c" stroke-linecap="round" stroke-linejoin="round" stroke-miterlimit="10" stroke-width=".96"/>
  </g>
  <g transform="matrix(.75 0 0 -.75 0 1224)">
   <g transform="translate(633.6,573.92)">
    <path d="m0 0v-86.88" fill="none" stroke="#e1e1e1" stroke-linecap="round" stroke-linejoin="round" stroke-miterlimit="10" stroke-width=".96"/>
   </g>
   <g transform="translate(626.72,210.4)">
    <path d="m0 0h6.88v-0.96h99.36" fill="none" stroke="#696969" stroke-linecap="round" stroke-linejoin="round" stroke-miterlimit="10" stroke-width=".96"/>
   </g>
  </g>
  <g transform="matrix(.75 0 0 -.75 547.44 1063.9)">
   <path d="m0 0v214.24m-6.08-215.2v216m-6.08-216v216m-6.08-216v18.88m0 178.4v18.72m-6.08-216v21.92m0 172.32v21.76m-6.08-216v21.92m0 172.32v21.76m-6.08-216v21.92m0 172.32v21.76m-6.08-216v21.92m0 172.32v21.76m-5.92-216v21.92m0 172.32v21.76m-6.08-216v21.92m0 172.32v21.76m-6.08-216v21.92m0 172.32v21.76m-6.08-216v21.92m0 172.32v21.76m-6.08-216v21.92m0 172.32v21.76m-6.08-216v21.92m0 172.32v21.76m-6.08-216v21.92m0 172.32v21.76m-6.08-216v21.92m0 172.32v21.76" fill="none" stroke="#4c4c4c" stroke-linecap="round" stroke-linejoin="round" stroke-miterlimit="10" stroke-width=".96"/>
  </g>
  <g transform="matrix(.75 0 0 -.75 0 1224)">
   <g transform="translate(633.6,430.72)">
    <path d="m0 0v-27.04m0-166.24v-27.04" fill="none" stroke="#e1e1e1" stroke-linecap="round" stroke-linejoin="round" stroke-miterlimit="10" stroke-width=".96"/>
   </g>
   <g transform="translate(840.48,209.44)">
    <path d="m0 0h-76.48" fill="none" stroke="#696969" stroke-linecap="round" stroke-linejoin="round" stroke-miterlimit="10" stroke-width=".96"/>
   </g>
   <g transform="translate(841.12,212.48)">
    <path d="m0 0h-17.28" fill="none" stroke="#959595" stroke-linecap="round" stroke-linejoin="round" stroke-miterlimit="10" stroke-width=".96"/>
   </g>
  </g>
  <g transform="matrix(.75 0 0 -.75 661.08 944.04)" fill="none">
   <path d="m0 0v21.44m-6.08-45.76v45.76m-6.08-69.92v69.92m-6.08-94.24v94.24m-6.08-118.4v118.4m-6.08-142.72v142.72m-6.08-166.88v166.88m-6.08-182.24v182.24m-5.92-181.28v181.28m-12.16-182.24v30.72m0 47.68v59.36m-6.08-137.76v30.72m0 47.68v59.36m-6.08-137.76v30.72m0 47.68v59.36m-6.08-137.76v30.72m0 47.68v59.36m-6.08-137.76v30.72m0 47.68v59.36m-6.08-137.76v30.72m0 47.68v59.36m-6.08-137.76v30.72m0 47.68v59.36m-5.92-137.76v30.72m0 107.04v44.48" fill="none" stroke="#4c4c4c" stroke-linecap="round" stroke-linejoin="round" stroke-miterlimit="10" stroke-width=".96"/>
  </g>
  <g transform="matrix(.75 0 0 -.75 0 1224)">
   <g transform="translate(778.4,243.2)">
    <path d="m0 0v107.04" fill="none" stroke="#4c4c4c" stroke-linecap="round" stroke-linejoin="round" stroke-miterlimit="10" stroke-width=".96"/>
   </g>
   <g transform="translate(772.32,212.48)">
    <path d="m0 0v30.72m0 107.04v44.48" fill="none" stroke="#4c4c4c" stroke-linecap="round" stroke-linejoin="round" stroke-miterlimit="10" stroke-width=".96"/>
   </g>
   <g transform="translate(772.32,243.2)">
    <path d="m0 0v107.04" fill="none" stroke="#4c4c4c" stroke-linecap="round" stroke-linejoin="round" stroke-miterlimit="10" stroke-width=".96"/>
   </g>
   <g transform="translate(766.24,212.48)">
    <path d="m0 0v182.24" fill="none" stroke="#4c4c4c" stroke-linecap="round" stroke-linejoin="round" stroke-miterlimit="10" stroke-width=".96"/>
   </g>
   <g transform="translate(823.84,212.48)">
    <path d="m0 0h-59.84" fill="none" stroke="#959595" stroke-linecap="round" stroke-linejoin="round" stroke-miterlimit="10" stroke-width=".96"/>
   </g>
   <g transform="translate(836.48,574.88)">
    <path d="m0 0h-202.88" fill="none" stroke="#696969" stroke-linecap="round" stroke-linejoin="round" stroke-miterlimit="10" stroke-width=".96"/>
   </g>
  </g>
  <g transform="matrix(.75 0 0 -.75 616.92 831.72)">
   <path d="m0 0v48.8m-3.52-48.8v48.8m-3.52-48.8v48.8m-3.36-48.8v48.8m-3.52-48.8v48.8m-3.52-48.8v48.8m-3.36-48.8v48.8m-3.52-48.8v48.8m-3.52-48.8v48.8m-3.36-48.8v48.8m-3.52-48.8v48.8m-3.52-48.8v48.8m-62.24-5.28v5.28m-3.52-5.28v5.28m-3.36-5.28v5.28m-3.52-5.28v5.28m-3.52-5.28v5.28m-3.36-5.28v5.28m-3.52-5.28v5.28m-3.52-5.28v5.28m-3.36-5.28v5.28" fill="none" stroke="#4c4c4c" stroke-linecap="round" stroke-linejoin="round" stroke-miterlimit="10" stroke-width=".96"/>
  </g>
  <g transform="matrix(.75 0 0 -.75 0 1224)">
   <g transform="translate(836.48,571.84)">
    <path d="m0 0h-202.88" fill="none" stroke="#959595" stroke-linecap="round" stroke-linejoin="round" stroke-miterlimit="10" stroke-width=".96"/>
   </g>
   <g transform="translate(626.72,237.44)">
    <path d="m0 0h83.04v166.24h-83.04" fill="none" stroke="#e1e1e1" stroke-linecap="round" stroke-linejoin="round" stroke-miterlimit="10" stroke-width=".96"/>
   </g>
   <g transform="translate(626.72,573.92)">
    <path d="m0 0h6.88v0.96" fill="none" stroke="#696969" stroke-linecap="round" stroke-linejoin="round" stroke-miterlimit="10" stroke-width=".96"/>
   </g>
   <g transform="translate(896,431.52)" fill="none">
    <path d="m0 0h-132" fill="none" stroke="#696969" stroke-linecap="round" stroke-linejoin="round" stroke-miterlimit="10" stroke-width=".96"/>
   </g>
  </g>
  <g transform="matrix(.75 0 0 -.75 668.76 912.84)" fill="none">
   <path d="m0 0v13.6m-3.36-27.52v27.52m-3.52-30.72v30.72m-3.36-30.72v30.72m-3.52-30.72v30.72m-3.52-30.72v30.72m-3.36-30.72v30.72m-3.52-30.72v30.72m-3.52-30.72v30.72m-3.36-30.72v30.72m-3.52-30.72v30.72m-3.52-30.72v30.72m-3.36-30.72v30.72m-3.52-30.72v30.72m-3.52-30.72v30.72m-3.36-30.72v30.72m-3.52-30.72v30.72m-3.36-30.72v29.92m-3.52-29.92v30.72m-3.52-30.72v30.72m-3.36-30.72v30.72m-3.52-30.72v30.72m-3.52-30.72v30.72m-3.36-30.72v30.72m-3.52-30.72v30.72m-3.52-30.72v30.72m-3.36-30.72v30.72m-3.52-30.72v30.72m-3.52-30.72v30.72m-3.36-30.72v30.72m-3.52-30.72v30.72m-3.52-30.72v30.72m-3.36-30.72v30.72m-3.52-30.72v30.72m-3.36-30.72v30.72m-3.52-30.72v30.72m-3.52-30.72v30.72" fill="none" stroke="#4c4c4c" stroke-linecap="round" stroke-linejoin="round" stroke-miterlimit="10" stroke-width=".96"/>
  </g>
  <g transform="matrix(.75 0 0 -.75 0 1224)">
   <g transform="translate(895.2,428.48)">
    <path d="m0 0h-131.2" fill="none" stroke="#959595" stroke-linecap="round" stroke-linejoin="round" stroke-miterlimit="10" stroke-width=".96"/>
   </g>
   <g transform="translate(723.84,566.56)">
    <path d="m0 0v-20.64h-31.2v20.64z" fill="none" stroke="#959595" stroke-linecap="round" stroke-linejoin="round" stroke-miterlimit="10" stroke-width=".96"/>
   </g>
   <g transform="translate(722.56,565.76)">
    <path d="m0 0v-19.04h-29.12v19.04z" fill="none" stroke="#959595" stroke-linecap="round" stroke-linejoin="round" stroke-miterlimit="10" stroke-width=".96"/>
   </g>
   <g transform="translate(707.84,546.72)">
    <path d="m0 0v19.04" fill="none" stroke="#959595" stroke-linecap="round" stroke-linejoin="round" stroke-miterlimit="10" stroke-width=".96"/>
   </g>
   <g transform="translate(721.12,548.16)">
    <path d="m0 0v16.16h-12v-16.16z" fill="none" stroke="#959595" stroke-linecap="round" stroke-linejoin="round" stroke-miterlimit="10" stroke-width=".96"/>
   </g>
   <g transform="translate(694.72,548.16)">
    <path d="m0 0v16.16h12.16v-16.16z" fill="none" stroke="#959595" stroke-linecap="round" stroke-linejoin="round" stroke-miterlimit="10" stroke-width=".96"/>
   </g>
   <g transform="translate(726.88,571.84)">
    <path d="m0 0v-28.96h-37.28v28.96" fill="none" stroke="#959595" stroke-linecap="round" stroke-linejoin="round" stroke-miterlimit="10" stroke-width=".96"/>
   </g>
   <g transform="translate(626.72,430.72)">
    <path d="m0 0h6.88v0.8" fill="none" stroke="#696969" stroke-linecap="round" stroke-linejoin="round" stroke-miterlimit="10" stroke-width=".96"/>
   </g>
  </g>
  <g transform="matrix(.75 0 0 -.75 547.44 900.36)">
   <path d="m0 0v46.4m-6.08-46.4v46.4m-6.08-46.4v1.28m0 37.28v7.84m-6.08-46.4v1.28m0 37.28v7.84m-6.08-46.4v1.28m0 37.28v7.84m-6.08-46.4v1.28m0 37.28v7.84m-6.08-46.4v1.28m0 37.28v7.84m-6.08-46.4v1.28m0 37.28v7.84m-5.92-46.4v1.28m0 37.28v7.84m-6.08-46.4v1.28m0 37.28v7.84m-6.08-46.4v1.28m0 37.28v7.84m-6.08-46.4v1.28m0 37.28v7.84m-6.08-46.4v1.28m0 37.28v7.84m-6.08-46.4v1.28m0 37.28v7.84m-6.08-46.4v1.28m0 37.28v7.84" fill="none" stroke="#4c4c4c" stroke-linecap="round" stroke-linejoin="round" stroke-miterlimit="10" stroke-width=".96"/>
  </g>
  <g transform="matrix(.75 0 0 -.75 0 1224)">
   <g transform="translate(633.6,431.52)">
    <path d="m0 0h99.36" fill="none" stroke="#696969" stroke-linecap="round" stroke-linejoin="round" stroke-miterlimit="10" stroke-width=".96"/>
   </g>
   <g transform="translate(640.64,477.92)">
    <path d="m0 0h93.6" fill="none" stroke="#b2b2b2" stroke-linecap="round" stroke-linejoin="round" stroke-miterlimit="10" stroke-width=".96"/>
   </g>
   <g transform="translate(640.64,482.72)">
    <path d="m0 0h93.6" fill="none" stroke="#696969" stroke-linecap="round" stroke-linejoin="round" stroke-miterlimit="10" stroke-width=".96"/>
   </g>
   <g transform="translate(640.64,431.52)">
    <path d="m0 0v51.2m93.6 0v-41.6" fill="none" stroke="#b2b2b2" stroke-linecap="round" stroke-linejoin="round" stroke-miterlimit="10" stroke-width=".96"/>
   </g>
   <g transform="translate(734.24,482.72)">
    <path d="m0 0v1.6m4.64-0.8h6.56" fill="none" stroke="#696969" stroke-linecap="round" stroke-linejoin="round" stroke-miterlimit="10" stroke-width=".96"/>
   </g>
   <g transform="translate(754.08,441.12)">
    <path d="m0 0v8m-6.08-8v32.32m-6.08-32.32v39.36" fill="none" stroke="#4c4c4c" stroke-linecap="round" stroke-linejoin="round" stroke-miterlimit="10" stroke-width=".96"/>
   </g>
   <g transform="translate(746.24,480.48)">
    <path d="m0 0h-7.36" fill="none" stroke="#959595" stroke-linecap="round" stroke-linejoin="round" stroke-miterlimit="10" stroke-width=".96"/>
   </g>
   <g transform="translate(734.24,484.32)">
    <path d="m0 0h4.64" fill="none" stroke="#696969" stroke-linecap="round" stroke-linejoin="round" stroke-miterlimit="10" stroke-width=".96"/>
   </g>
   <g transform="translate(738.88,483.52)">
    <path d="m0 0v-42.4" fill="none" stroke="#959595" stroke-linecap="round" stroke-linejoin="round" stroke-miterlimit="10" stroke-width=".96"/>
   </g>
   <g transform="translate(738.88,484.32)">
    <path d="m0 0v-0.8m-98.24 1.76h-3.36" fill="none" stroke="#696969" stroke-linecap="round" stroke-linejoin="round" stroke-miterlimit="10" stroke-width=".96"/>
   </g>
  </g>
  <g transform="matrix(.75 0 0 -.75 475.2 1048.2)">
   <path d="m0 0h76.16m0-3.04h6.56m0 3.04v172.32m-6.56 0h-76.16m82.72 3.04h-6.56" fill="none" stroke="#959595" stroke-linecap="round" stroke-linejoin="round" stroke-miterlimit="10" stroke-width=".96"/>
  </g>
  <g transform="matrix(.75 0 0 -.75 0 1224)">
   <g transform="translate(637.28,467.04)">
    <path d="m0 0h-10.56m10.56-31.2h-10.56" fill="none" stroke="#b2b2b2" stroke-linecap="round" stroke-linejoin="round" stroke-miterlimit="10" stroke-width=".96"/>
   </g>
   <g transform="translate(644.96,467.04)">
    <path d="m0 0v-31.2h-4.32v31.2z" fill="none" stroke="#959595" stroke-linecap="round" stroke-linejoin="round" stroke-miterlimit="10" stroke-width=".96"/>
   </g>
   <g transform="translate(715.2,435.84)">
    <path d="m0 0v31.2h-69.28v-31.2z" fill="none" stroke="#959595" stroke-linecap="round" stroke-linejoin="round" stroke-miterlimit="10" stroke-width=".96"/>
   </g>
   <g transform="translate(714.24,436.8)">
    <path d="m0 0v29.44h-67.52v-29.44z" fill="none" stroke="#959595" stroke-linecap="round" stroke-linejoin="round" stroke-miterlimit="10" stroke-width=".96"/>
   </g>
   <g transform="translate(645.92,435.04)">
    <path d="m0 0v32.96h-0.96v-32.96z" fill="none" stroke="#959595" stroke-linecap="round" stroke-linejoin="round" stroke-miterlimit="10" stroke-width=".96"/>
   </g>
   <g transform="translate(718.24,470.08)" fill="none" stroke="#959595" stroke-linecap="round" stroke-linejoin="round" stroke-miterlimit="10" stroke-width=".96">
    <path d="m0 0v-37.28h-75.84"/>
    <path d="m0 0h-75.84"/>
   </g>
   <g transform="translate(709.44,461.44)">
    <path d="m0 0v-20h-37.6v20z" fill="none" stroke="#e1e1e1" stroke-linecap="round" stroke-linejoin="round" stroke-miterlimit="10" stroke-width=".96"/>
   </g>
   <g transform="translate(708.64,460.64)">
    <path d="m0 0v-18.24h-36v18.24z" fill="none" stroke="#4c4c4c" stroke-linecap="round" stroke-linejoin="round" stroke-miterlimit="10" stroke-width=".96"/>
   </g>
   <g transform="translate(651.52,461.44)">
    <path d="m0 0v-20h15.52v20z" fill="none" stroke="#e1e1e1" stroke-linecap="round" stroke-linejoin="round" stroke-miterlimit="10" stroke-width=".96"/>
   </g>
   <g transform="translate(652.32,460.64)">
    <path d="m0 0v-18.24h13.92v18.24z" fill="none" stroke="#4c4c4c" stroke-linecap="round" stroke-linejoin="round" stroke-miterlimit="10" stroke-width=".96"/>
   </g>
  </g>
  <g transform="matrix(.75 0 0 -.75 535.68 874.32)">
   <path d="m0 0-6.56-5.6m-1.92-1.6-2.08-1.76m-1.92-1.6-9.92-8.32m-1.92-1.76-2.08-1.6" fill="none" stroke="#4c4c4c" stroke-linecap="round" stroke-linejoin="round" stroke-miterlimit="10" stroke-width=".96"/>
  </g>
  <g transform="matrix(.75 0 0 -.75 0 1224)">
   <g transform="translate(685.92,442.24)">
    <path d="m0 0-6.56-5.44-5.76 5.12" fill="none" stroke="#4c4c4c" stroke-linecap="round" stroke-linejoin="round" stroke-miterlimit="10" stroke-width=".96"/>
   </g>
   <g transform="translate(671.68,443.68)">
    <path d="m0 0-1.92 1.76m-1.92 1.6-9.6 8.8m-1.92 1.76-1.92 1.76" fill="none" stroke="#4c4c4c" stroke-linecap="round" stroke-linejoin="round" stroke-miterlimit="10" stroke-width=".96"/>
   </g>
   <g transform="translate(652.48,461.12)">
    <path d="m0 0-5.76 5.12" fill="none" stroke="#4c4c4c" stroke-linecap="round" stroke-linejoin="round" stroke-miterlimit="10" stroke-width=".96"/>
   </g>
   <g transform="translate(633.6,467.04)">
    <path d="m0 0v-31.2" fill="none" stroke="#b2b2b2" stroke-linecap="round" stroke-linejoin="round" stroke-miterlimit="10" stroke-width=".96"/>
   </g>
   <g transform="translate(633.6,428.48)">
    <path d="m0 0v-0.64" fill="none" stroke="#000" stroke-linecap="round" stroke-linejoin="round" stroke-miterlimit="10" stroke-width=".96"/>
   </g>
   <g transform="translate(642.4,435.84)">
    <path d="m0 0v-4.32m0 35.52v10.88" fill="none" stroke="#e1e1e1" stroke-linecap="round" stroke-linejoin="round" stroke-miterlimit="10" stroke-width=".96"/>
   </g>
   <g transform="translate(642.4,482.72)">
    <path d="m0 0v4.32h-8.8" fill="none" stroke="#e1e1e1" stroke-linecap="round" stroke-linejoin="round" stroke-miterlimit="10" stroke-width=".96"/>
   </g>
   <g transform="translate(764,209.44)">
    <path d="m0 0v222.08" fill="none" stroke="#e1e1e1" stroke-linecap="round" stroke-linejoin="round" stroke-miterlimit="10" stroke-width=".96"/>
   </g>
   <g transform="translate(823.84,523.04)">
    <path d="m0 0v-41.44h-41.44v41.44z" fill="none" stroke="#959595" stroke-linecap="round" stroke-linejoin="round" stroke-miterlimit="10" stroke-width=".96"/>
   </g>
   <g transform="translate(822.56,522.24)">
    <path d="m0 0v-39.84h-39.36v39.84z" fill="none" stroke="#959595" stroke-linecap="round" stroke-linejoin="round" stroke-miterlimit="10" stroke-width=".96"/>
   </g>
   <g transform="translate(783.2,502.56)">
    <path d="m0 0h39.36" fill="none" stroke="#959595" stroke-linecap="round" stroke-linejoin="round" stroke-miterlimit="10" stroke-width=".96"/>
   </g>
   <g transform="translate(784.32,483.68)">
    <path d="m0 0h36.8v17.6h-36.8z" fill="none" stroke="#959595" stroke-linecap="round" stroke-linejoin="round" stroke-miterlimit="10" stroke-width=".96"/>
   </g>
   <g transform="translate(784.32,520.96)">
    <path d="m0 0h36.8v-17.6h-36.8z" fill="none" stroke="#959595" stroke-linecap="round" stroke-linejoin="round" stroke-miterlimit="10" stroke-width=".96"/>
   </g>
   <g transform="translate(823.84,394.72)">
    <path d="m0 0v-41.44h-41.44v41.44z" fill="none" stroke="#959595" stroke-linecap="round" stroke-linejoin="round" stroke-miterlimit="10" stroke-width=".96"/>
   </g>
   <g transform="translate(822.56,393.92)">
    <path d="m0 0v-39.84h-39.36v39.84z" fill="none" stroke="#959595" stroke-linecap="round" stroke-linejoin="round" stroke-miterlimit="10" stroke-width=".96"/>
   </g>
   <g transform="translate(783.2,374.24)">
    <path d="m0 0h39.36" fill="none" stroke="#959595" stroke-linecap="round" stroke-linejoin="round" stroke-miterlimit="10" stroke-width=".96"/>
   </g>
   <g transform="translate(784.32,355.36)">
    <path d="m0 0h36.8v17.6h-36.8z" fill="none" stroke="#959595" stroke-linecap="round" stroke-linejoin="round" stroke-miterlimit="10" stroke-width=".96"/>
   </g>
   <g transform="translate(784.32,392.64)">
    <path d="m0 0h36.8v-17.6h-36.8z" fill="none" stroke="#959595" stroke-linecap="round" stroke-linejoin="round" stroke-miterlimit="10" stroke-width=".96"/>
   </g>
   <g transform="translate(887.52,397.76)">
    <path d="m0 0h-123.52" fill="none" stroke="#959595" stroke-linecap="round" stroke-linejoin="round" stroke-miterlimit="10" stroke-width=".96"/>
   </g>
   <g transform="translate(779.36,394.72)">
    <path d="m0 0v-44.48h44.48" fill="none" stroke="#959595" stroke-linecap="round" stroke-linejoin="round" stroke-miterlimit="10" stroke-width=".96"/>
   </g>
   <g transform="translate(823.84,287.84)">
    <path d="m0 0v-41.6h-41.44v41.6z" fill="none" stroke="#959595" stroke-linecap="round" stroke-linejoin="round" stroke-miterlimit="10" stroke-width=".96"/>
   </g>
   <g transform="translate(822.56,287.04)">
    <path d="m0 0v-39.84h-39.36v39.84z" fill="none" stroke="#959595" stroke-linecap="round" stroke-linejoin="round" stroke-miterlimit="10" stroke-width=".96"/>
   </g>
   <g transform="translate(783.2,267.2)">
    <path d="m0 0h39.36" fill="none" stroke="#959595" stroke-linecap="round" stroke-linejoin="round" stroke-miterlimit="10" stroke-width=".96"/>
   </g>
   <g transform="translate(784.32,248.48)">
    <path d="m0 0h36.8v17.44h-36.8z" fill="none" stroke="#959595" stroke-linecap="round" stroke-linejoin="round" stroke-miterlimit="10" stroke-width=".96"/>
   </g>
   <g transform="translate(784.32,285.6)">
    <path d="m0 0h36.8v-17.44h-36.8z" fill="none" stroke="#959595" stroke-linecap="round" stroke-linejoin="round" stroke-miterlimit="10" stroke-width=".96"/>
   </g>
   <g transform="translate(823.84,290.88)">
    <path d="m0 0h-44.48v-47.68h44.48" fill="none" stroke="#959595" stroke-linecap="round" stroke-linejoin="round" stroke-miterlimit="10" stroke-width=".96"/>
   </g>
   <g transform="translate(826.88,478.56)">
    <path d="m0 0v93.28" fill="none" stroke="#959595" stroke-linecap="round" stroke-linejoin="round" stroke-miterlimit="10" stroke-width=".96"/>
   </g>
   <g transform="translate(779.36,571.84)">
    <path d="m0 0v-93.28h47.52" fill="none" stroke="#959595" stroke-linecap="round" stroke-linejoin="round" stroke-miterlimit="10" stroke-width=".96"/>
   </g>
   <g transform="translate(737.6,441.12)">
    <path d="m0 0v-120.64m-4.64 111.04v-111.04" fill="none" stroke="#959595" stroke-linecap="round" stroke-linejoin="round" stroke-miterlimit="10" stroke-width=".96"/>
   </g>
   <g transform="translate(738.56,441.12)">
    <path d="m0 0v-120.64" fill="none" stroke="#e1e1e1" stroke-linecap="round" stroke-linejoin="round" stroke-miterlimit="10" stroke-width=".96"/>
   </g>
   <g transform="translate(766.88,441.12)">
    <path d="m0 0h-33.92v-9.6" fill="none" stroke="#696969" stroke-linecap="round" stroke-linejoin="round" stroke-miterlimit="10" stroke-width=".96"/>
   </g>
   <g transform="translate(737.6,200)">
    <path d="m0 0v120.48m-4.64-111.04v111.04" fill="none" stroke="#959595" stroke-linecap="round" stroke-linejoin="round" stroke-miterlimit="10" stroke-width=".96"/>
   </g>
   <g transform="translate(738.56,200)">
    <path d="m0 0v120.48" fill="none" stroke="#e1e1e1" stroke-linecap="round" stroke-linejoin="round" stroke-miterlimit="10" stroke-width=".96"/>
   </g>
   <g transform="translate(766.88,200)">
    <path d="m0 0h-33.92v9.44" fill="none" stroke="#696969" stroke-linecap="round" stroke-linejoin="round" stroke-miterlimit="10" stroke-width=".96"/>
   </g>
   <g transform="translate(841.28,584.32)">
    <path d="m0 0v-152.8m-4.8 143.36v-143.36" fill="none" stroke="#959595" stroke-linecap="round" stroke-linejoin="round" stroke-miterlimit="10" stroke-width=".96"/>
   </g>
   <g transform="translate(842.08,584.32)">
    <path d="m0 0v-152.8" fill="none" stroke="#e1e1e1" stroke-linecap="round" stroke-linejoin="round" stroke-miterlimit="10" stroke-width=".96"/>
   </g>
   <g transform="translate(891.84,584.32)" fill="none" stroke="#696969" stroke-linecap="round" stroke-linejoin="round" stroke-miterlimit="10" stroke-width=".96">
    <path d="m0 0h-55.36v-9.44"/>
    <path d="m0 0v-152.8"/>
   </g>
   <g transform="translate(766.88,200)">
    <path d="m0 0v9.44m0 222.08v9.6" fill="none" stroke="#696969" stroke-linecap="round" stroke-linejoin="round" stroke-miterlimit="10" stroke-width=".96"/>
   </g>
  </g>
  <g transform="matrix(.75 0 0 -.75 516.12 921.96)">
   <path d="m0 0v-164.48m-19.84 164.48v-164.48m-20 164.48v-164.48m-19.84 164.48v-164.48" fill="none" stroke="#c4c4c4" stroke-linecap="round" stroke-linejoin="round" stroke-miterlimit="10" stroke-width=".96"/>
  </g>
  <g transform="matrix(.75 0 0 -.75 0 1224)">
   <g transform="translate(843.84,200)">
    <path d="m0 0h-5.6" fill="none" stroke="#696969" stroke-linecap="round" stroke-linejoin="round" stroke-miterlimit="10" stroke-width=".96"/>
   </g>
   <g transform="translate(903.2,441.12)">
    <path d="m0 0-60.32-241.12" fill="none" stroke="#4c4c4c" stroke-linecap="round" stroke-linejoin="round" stroke-miterlimit="10" stroke-width=".96"/>
   </g>
   <g transform="translate(896,431.52)">
    <path d="m0 0-55.52-222.08" fill="none" stroke="#959595" stroke-linecap="round" stroke-linejoin="round" stroke-miterlimit="10" stroke-width=".96"/>
   </g>
   <g transform="translate(904.16,441.12)">
    <path d="m0 0-60.32-241.12" fill="none" stroke="#696969" stroke-linecap="round" stroke-linejoin="round" stroke-miterlimit="10" stroke-width=".96"/>
   </g>
   <g transform="translate(838.24,200)">
    <path d="m0 0v0.48l2.24 8.96" fill="none" stroke="#696969" stroke-linecap="round" stroke-linejoin="round" stroke-miterlimit="10" stroke-width=".96"/>
   </g>
   <g transform="translate(904.16,441.12)">
    <path d="m0 0h-5.92" fill="none" stroke="#696969" stroke-linecap="round" stroke-linejoin="round" stroke-miterlimit="10" stroke-width=".96"/>
   </g>
   <g transform="translate(886.72,394.72)">
    <path d="m0 0h-122.72m64.64-182.24v182.24m-4.8-182.24v182.24" fill="none" stroke="#959595" stroke-linecap="round" stroke-linejoin="round" stroke-miterlimit="10" stroke-width=".96"/>
   </g>
   <g transform="translate(748.96,492.96)">
    <path d="m0 0h-5.76" fill="none" stroke="#696969" stroke-linecap="round" stroke-linejoin="round" stroke-miterlimit="10" stroke-width=".96"/>
   </g>
   <g transform="translate(760.96,441.12)">
    <path d="m0 0-12.96 51.84" fill="none" stroke="#4c4c4c" stroke-linecap="round" stroke-linejoin="round" stroke-miterlimit="10" stroke-width=".96"/>
   </g>
   <g transform="translate(756.16,441.12)">
    <path d="m0 0-10.72 42.4" fill="none" stroke="#959595" stroke-linecap="round" stroke-linejoin="round" stroke-miterlimit="10" stroke-width=".96"/>
   </g>
   <g transform="translate(761.92,441.12)">
    <path d="m0 0-12.96 51.84" fill="none" stroke="#696969" stroke-linecap="round" stroke-linejoin="round" stroke-miterlimit="10" stroke-width=".96"/>
   </g>
   <g transform="translate(743.2,492.96)">
    <path d="m0 0v-0.48l2.24-8.96" fill="none" stroke="#696969" stroke-linecap="round" stroke-linejoin="round" stroke-miterlimit="10" stroke-width=".96"/>
   </g>
   <g transform="translate(640.64,485.28)">
    <path d="m0 0v-2.56" fill="none" stroke="#696969" stroke-linecap="round" stroke-linejoin="round" stroke-miterlimit="10" stroke-width=".96"/>
   </g>
  </g>
  <g transform="matrix(.75 0 0 -.75 586.8 831.72)">
   <path d="m0 0v48.8m41.44-48.8v48.8m-100-5.28v5.28m-31.2-5.28v5.28" fill="none" stroke="#959595" stroke-linecap="round" stroke-linejoin="round" stroke-miterlimit="10" stroke-width=".96"/>
  </g>
  <g transform="matrix(.75 0 0 -.75 0 1224)">
   <g transform="translate(898.24,441.12)">
    <path d="m0 0-2.24-9.6" fill="none" stroke="#696969" stroke-linecap="round" stroke-linejoin="round" stroke-miterlimit="10" stroke-width=".96"/>
   </g>
   <g transform="translate(637.28,482.72)">
    <path d="m0 0h-10.56" fill="none" stroke="#696969" stroke-linecap="round" stroke-linejoin="round" stroke-miterlimit="10" stroke-width=".96"/>
   </g>
   <g transform="translate(637.28,431.52)">
    <path d="m0 0v51.2" fill="none" stroke="#b2b2b2" stroke-linecap="round" stroke-linejoin="round" stroke-miterlimit="10" stroke-width=".96"/>
   </g>
   <g transform="translate(788.8,560.48)">
    <path d="m0 0-1.76-1.92 2.24 1.28z" fill-rule="evenodd"/>
   </g>
   <g transform="translate(823.04,209.6)">
    <path d="m0 0-2.4 0.96 2.08-1.76z" fill-rule="evenodd"/>
   </g>
   <g transform="translate(653.44,480.64)">
    <path d="M 0,0 2.56,0.16 0,0.8 Z" fill-rule="evenodd"/>
   </g>
  </g>
  <g transform="matrix(.75 0 0 -.75 537.24 982.32)">
   <path d="m0 0v-0.16l-4.8-2.72v2.4h-1.44v0.48h1.44v0.48h0.48v-2.4l2.56 1.44z" fill-rule="evenodd" stroke="#000" stroke-linecap="round" stroke-linejoin="round" stroke-miterlimit="10" stroke-width=".5"/>
  </g>
  <g transform="matrix(.75 0 0 -.75 0 1224)">
   <g transform="translate(716.32,322.24)">
    <path d="m0 0-1.76-0.48h-2.56v-1.44 1.92z" fill-rule="evenodd" stroke="#000" stroke-linecap="round" stroke-linejoin="round" stroke-miterlimit="10" stroke-width=".5"/>
   </g>
  </g>
  <g transform="matrix(.75 0 0 -.75 537.24 979.08)">
   <path d="m0 0v0l-4.8-2.72v2.24h-1.44v0.48h1.44v0.64h0.48v-2.56l2.56 1.44z" fill-rule="evenodd" stroke="#000" stroke-linecap="round" stroke-linejoin="round" stroke-miterlimit="10" stroke-width=".5"/>
  </g>
  <g transform="matrix(.75 0 0 -.75 0 1224)">
   <g transform="translate(716.32,326.56)">
    <path d="m0 0-1.76-0.48h-2.56v-1.44 1.92z" fill-rule="evenodd" stroke="#000" stroke-linecap="round" stroke-linejoin="round" stroke-miterlimit="10" stroke-width=".5"/>
   </g>
  </g>
  <g transform="matrix(.75 0 0 -.75 537.24 985.44)">
   <path d="m0 0v0l-4.8-2.72v2.24h-1.44v0.48h1.44v0.64h0.48v-2.56l2.56 1.44z" fill-rule="evenodd" stroke="#000" stroke-linecap="round" stroke-linejoin="round" stroke-miterlimit="10" stroke-width=".5"/>
  </g>
  <g transform="matrix(.75 0 0 -.75 0 1224)">
   <g transform="translate(716.32,318.08)">
    <path d="m0 0-1.76-0.48h-2.56v-1.44 1.92z" fill-rule="evenodd" stroke="#000" stroke-linecap="round" stroke-linejoin="round" stroke-miterlimit="10" stroke-width=".5"/>
   </g>
   <g transform="translate(653.92,468.32)">
    <path d="m0 0 2.56-0.32-2.4 1.12z" fill-rule="evenodd"/>
   </g>
  </g>
  <g transform="matrix(.75 0 0 -.75 617.88 862.8)">
   <path d="m0 0 3.04-3.04m-47.52 0 3.04 3.04m-58.56 64.32 3.04-3.04m-37.28 0 3.04 3.04m22.56-78.88 3.04 3.04m-3.04-34.24 3.04-3.04m61.12-82.56 3.04 3.04m-3.04-62.4 3.04-3.04m-3.04-44.64 3.04 3.04m-72.64-8.8v-6.08m6.56 178.4v-178.4m-6.56 172.32v6.08" fill="none" stroke="#959595" stroke-linecap="round" stroke-linejoin="round" stroke-miterlimit="10" stroke-width=".96"/>
  </g>
 </g>
</svg>
